<svg xmlns="http://www.w3.org/2000/svg" width="386.574" height="88.556" viewBox="0 0 386.574 88.556">
  <g id="Group_264" data-name="Group 264" transform="translate(-140 -40.582)">
    <g id="Group_57" data-name="Group 57" transform="translate(140 40.582)">
      <g id="Group_259" data-name="Group 259" transform="translate(0 0)">
        <text id="_" data-name="®" transform="translate(93.277 83.356)" fill="#13a658" stroke="#3aa859" stroke-width="0.2" font-size="17" font-family="Symbol"><tspan x="0" y="0">®</tspan></text>
        <g id="Group_126" data-name="Group 126">
          <path id="Path_1" data-name="Path 1" d="M99.24,296,73.7,339.955l25.545,44.4h51.43l25.585-44.4L150.67,296Z" transform="translate(-73.695 -296)" fill="#3aa859"/>
          <path id="Path_2" data-name="Path 2" d="M168.6,379.476s-.19,2.263,1.487,2.1,3.286-1.91,5.223-2.755,2.524-.623,2.524-.623h5.189s-.113,4.517-.272,7.635a35.575,35.575,0,0,1-.488,4.821c-.3,2.358-.681,4.62-.681,4.62l-1.095,6.866-.536,2.482s-1.24,4.183-1.695,5.338A12.326,12.326,0,0,1,177.216,412l-.95,1.558s-1.2,1.541-1.2,2.046a1.426,1.426,0,0,0,.328.87,2.591,2.591,0,0,0,.874.909,2.936,2.936,0,0,0,1.283.278,16.722,16.722,0,0,0,3.132,0c1.1-.182,2.357-2.058,2.357-2.058l1.185-2.644,1.066-3.005.735-2.574.836-3.668.281-2.931.544-4.816.276-2.335.3-4.443L188.5,378.2h13.767l-.147,6.22s-.143,9.583-.342,12.521c-.195,2.87-.455,9.287-.455,9.287a24.04,24.04,0,0,0,.365,3.734,10.329,10.329,0,0,0,1.286,3.6,8.915,8.915,0,0,0,1.621,2.337,4.3,4.3,0,0,0,2.3,1.448,5.619,5.619,0,0,0,1.853.2,16.027,16.027,0,0,0,2.086,0c1.465-.246,3.214-2.382,3.214-2.382l2.184-2.716,2.576-3.7s.56-.841.175-1.361a2.355,2.355,0,0,0-1.716-.718,1.141,1.141,0,0,0-1.035.341,23.6,23.6,0,0,1-1.716,2.682,2.758,2.758,0,0,1-2.113.717,4.009,4.009,0,0,1-1.7-1.441,10.342,10.342,0,0,1-1.348-3.3,49.19,49.19,0,0,1-.207-5.54l.223-10.578.148-10.947v-.4s6.851.1,7.554,0,.788-.656,1.665-2.715c0,0,.418-1.144.7-2.1a13.584,13.584,0,0,0,.441-2.832c.11-1.138.136-1.312,0-1.719s-.718-.34-.718-.34a7.891,7.891,0,0,0-1.49,0,2.413,2.413,0,0,0-.982.34l-.724.919-.986.8-.966.467-1.1.322-29.64-.222a27.52,27.52,0,0,0-3.146.308,22.884,22.884,0,0,0-2.906.707,35.138,35.138,0,0,0-4.783,2.548,16.812,16.812,0,0,0-2.82,2.684A4.343,4.343,0,0,0,168.6,379.476Z" transform="translate(-143.051 -348.951)" fill="#fff"/>
        </g>
        <path id="Union_2" data-name="Union 2" d="M129.33,65.479h-7.295V13.448h7.3v5.184a14.293,14.293,0,0,1,4.824-3.984,16.515,16.515,0,0,1,19.233,3.168,16.854,16.854,0,0,1,3.523,5.694,20.945,20.945,0,0,1,1.285,7.41,21.346,21.346,0,0,1-1.285,7.46,17.465,17.465,0,0,1-3.523,5.8,16.166,16.166,0,0,1-19.233,3.288,16.115,16.115,0,0,1-4.824-3.88V65.479h0ZM136.055,20a10.347,10.347,0,0,0-3.419,2.3,12.121,12.121,0,0,0-3.3,8.752,12.229,12.229,0,0,0,3.3,8.808,10.353,10.353,0,0,0,14.824-.064,12.4,12.4,0,0,0,3.312-8.872,11.9,11.9,0,0,0-3.312-8.712,10.5,10.5,0,0,0-7.44-3A10.333,10.333,0,0,0,136.055,20ZM163,50.531c-.164-.086-.531-.394-.562-.613a1.067,1.067,0,0,1,0-.145.6.6,0,0,1,.211-.56l.481-.9s.68-1.048.867-1.428a3.967,3.967,0,0,0,.327-.931c.179-.6.389-1.464.389-1.464l.532-2.941.184-1.224V13.448h7.3V44.055a5.622,5.622,0,0,0,.053.59,4.788,4.788,0,0,0,.359,1.6,1.279,1.279,0,0,0,.79.572.988.988,0,0,0,.868-.34,10.437,10.437,0,0,0,.645-1.12.819.819,0,0,1,.536-.161.875.875,0,0,1,.692.361c.167.239-.115.7-.115.7l-1.041,1.528-.927,1.339s-.742,1.053-1.368,1.2a6.172,6.172,0,0,1-.892.046,1.53,1.53,0,0,1-.228.014,2.287,2.287,0,0,1-.566-.072,1.738,1.738,0,0,1-.989-.638,3.987,3.987,0,0,1-.7-1.076,5.059,5.059,0,0,1-.56-1.681l-.063-.412-.1-1.354.008-.242,0-.124.006-.158h-.939c-.332,1.676-.875,3.4-.875,3.4a7.512,7.512,0,0,1-.55,1.715,1.589,1.589,0,0,1-.8.77A2.818,2.818,0,0,1,164.62,51l-.081,0A3.281,3.281,0,0,1,163,50.531Zm84.477-2.123a14.612,14.612,0,0,1-4.589-2.416,10.982,10.982,0,0,1-4.312-8.1h7.552a5.289,5.289,0,0,0,2.1,3.7,7.933,7.933,0,0,0,4.936,1.544,8.534,8.534,0,0,0,4.817-1.2,3.57,3.57,0,0,0,1.648-3.024c0-2.92-3.649-3.9-7.874-5.028-2.831-.758-6.038-1.617-8.468-3.2a8.54,8.54,0,0,1-4.138-7.643,9.055,9.055,0,0,1,3.664-7.2,15.9,15.9,0,0,1,9.9-2.975A14.957,14.957,0,0,1,262.4,15.9a11.222,11.222,0,0,1,3.959,8.3h-7.3a5.256,5.256,0,0,0-1.9-3.744,7.327,7.327,0,0,0-4.688-1.44c-3.727,0-5.952,1.483-5.952,3.968,0,3.045,3.644,4.052,7.864,5.219a29.7,29.7,0,0,1,8.233,3.18,8.716,8.716,0,0,1,4.19,7.474,9.325,9.325,0,0,1-.94,4.141,9.672,9.672,0,0,1-2.692,3.307,15.643,15.643,0,0,1-9.872,2.984A18.834,18.834,0,0,1,247.48,48.407ZM202.811,45.4c-2.727-2.651-4.168-6.529-4.168-11.216V13.448h7.231V33.1c0,3.148.815,5.611,2.424,7.32a8.523,8.523,0,0,0,6.409,2.472,8.619,8.619,0,0,0,6.464-2.472c1.614-1.706,2.432-4.168,2.432-7.32V13.448h7.3V48.712h-7.3V44.487a11.718,11.718,0,0,1-4.52,3.5A15.5,15.5,0,0,1,202.811,45.4Zm-197.9.12a12.53,12.53,0,0,1-3.453-4.3A15.276,15.276,0,0,1-.013,35.207h7.04A7.968,7.968,0,0,0,9.6,40.679a9.44,9.44,0,0,0,6.456,2.209,8.31,8.31,0,0,0,6.1-2.209,7.6,7.6,0,0,0,2.024-5.472c0-3.01-.96-5.115-2.936-6.431-1.867-1.245-4.615-1.824-8.648-1.824H10.931V20.936h1.728c3.475-.034,6.021-.571,7.784-1.641a5.72,5.72,0,0,0,2.107-2.149,6.6,6.6,0,0,0,.733-3.187,6.4,6.4,0,0,0-1.936-4.872,8.236,8.236,0,0,0-5.68-1.848,8.2,8.2,0,0,0-5.72,1.944,7.157,7.157,0,0,0-2.216,4.392H.627A12.549,12.549,0,0,1,5.276,4.247,16.886,16.886,0,0,1,15.924.968c4.408,0,8.09,1.222,10.648,3.536a10.929,10.929,0,0,1,2.752,3.862,12.1,12.1,0,0,1,.935,4.762,10.9,10.9,0,0,1-7.168,10.56v.256a10.627,10.627,0,0,1,5.824,4.111,13.5,13.5,0,0,1,2.176,7.857,12.291,12.291,0,0,1-3.84,9.311c-2.65,2.449-6.5,3.744-11.136,3.744A17.717,17.717,0,0,1,4.908,45.519Zm85.987,2.248a14.866,14.866,0,0,1-4.883-2.624A14.137,14.137,0,0,1,81.076,36.1h7.1c.989,4.088,4.434,6.528,9.216,6.528a8.489,8.489,0,0,0,6.9-2.864,11.1,11.1,0,0,0,2.192-7.184c0-6.239-3.143-9.536-9.088-9.536a8.425,8.425,0,0,0-8.384,5.824H82.1V1.928h28.16v6.4H88.819V21.064a10.253,10.253,0,0,1,3.92-2.976,13.912,13.912,0,0,1,5.744-1.248,16.837,16.837,0,0,1,7.173,1.44,12.353,12.353,0,0,1,4.611,3.7,17.12,17.12,0,0,1,3.192,10.416c0,4.758-1.386,8.784-4.008,11.641a13.605,13.605,0,0,1-5.037,3.435,19.082,19.082,0,0,1-7.083,1.245A20.893,20.893,0,0,1,90.895,47.768Zm-22.685.944H61.043V38.984H37.876v-5.5l21.5-30.847h8.832V32.647h5.953v6.336H68.211v9.727h0ZM46.259,32.647h15.1V10.056Zm136.507,7.574a4.839,4.839,0,1,1,9.677,0,4.839,4.839,0,1,1-9.677,0ZM164.467,4.1A4.623,4.623,0,0,1,169.14-.569,4.558,4.558,0,0,1,172.4.783a4.681,4.681,0,0,1,1.344,3.32,4.678,4.678,0,0,1-1.344,3.32,4.558,4.558,0,0,1-3.264,1.352A4.623,4.623,0,0,1,164.467,4.1Z" transform="translate(119.27 18.292)" fill="#3e466c" stroke="rgba(0,0,0,0)" stroke-miterlimit="10" stroke-width="1"/>
      </g>
    </g>
  </g>
</svg>
